<svg xmlns="http://www.w3.org/2000/svg" x="0px" y="0px" width="128" height="128" viewBox="0 0 32 32">
    <path fill="#f9c292" fill-rule="evenodd" d="M24.995,23.995v4h-16	l-2-2v-2H24.995z" clip-rule="evenodd"></path>
    <path fill="#589bd4" fill-rule="evenodd" d="M9.995,26.995h16v2h-16	l-1-1L9.995,26.995z" clip-rule="evenodd"></path>
    <path fill="#b4252c" fill-rule="evenodd" d="M7.995,26.995v2.001	h1.999v-2.001H7.995z" clip-rule="evenodd"></path>
    <path fill="#589bd4" fill-rule="evenodd" d="M9.995,2.995h16v22h-16	l-2-10L9.995,2.995z" clip-rule="evenodd"></path>
    <path fill="#b4252c" fill-rule="evenodd" d="M5.995,26.995v-22h2v-2	h2v22h-2v2H5.995z" clip-rule="evenodd"></path>
    <path fill="#064678" fill-rule="evenodd" d="M13.997,12.997v-4h2v-2	h4v2h2v4h-2v2h-4v-2H13.997z" clip-rule="evenodd"></path>
    <path fill="#064678" fill-rule="evenodd" d="M11.997,20.997v-2h2v-2	h8v2h2v2H11.997z" clip-rule="evenodd"></path>
</svg>