<svg width="32" height="32" x="0" y="0" viewBox="0 -20 100 140" xmlns="http://www.w3.org/2000/svg">
    <g>
        <path d="M35.101 55.024h30.014v-10h9.998c-.01-10.012.01-20.007 0-30.019h-9.998v-9.98H35.101v10h-9.983c.01 10.011-.01 20.007 0 30.019h9.983zm30.012-40c.01 10.006-.01 19.995 0 30H35.118c-.01-10.005.01-19.994 0-30zM85.115 65.024v-9.992h-10v10h10v19.992h-70v-20h10v-10h-10v9.993h-10v30.007l90 .008V65.024z" fill="#000000" opacity="1" data-original="#000000" class=""></path>
    </g>
</svg>