<svg width="32" height="32" x="0" y="0" viewBox="0 0 100 100" fill="none" xmlns="http://www.w3.org/2000/svg">
    <g>
        <path d="M25.101 5.013h30.014v10H25.101zM25.115 65.032h30.014v10H25.115zM15.101 15.013h10v10h-10zM15.115 55.032h10v10h-10zM75.101 75.013h10v10h-10z" fill="#000000" opacity="1" data-original="#000000"></path>
        <path d="M65.115 65.032h10v10h-10zM85.115 85.032h10v10h-10zM55.115 15.032h10v10h-10zM55.115 55.032h10v10h-10zM15.101 25.013h-10c.01 10.012-.01 20.007 0 30.019h10c-.01-10.012.01-20.007 0-30.02zM75.118 25.013h-10c.01 10.012-.01 20.007 0 30.019h10c-.01-10.012.01-20.007 0-30.02z" fill="#000000" opacity="1" data-original="#000000"></path>
        <path d="M45.116 35.032v-10h10v10z" fill="#000000" opacity="1" data-original="#000000"></path>
    </g>
</svg>