<svg xmlns="http://www.w3.org/2000/svg" x="0px" y="0px" width="128" height="128" viewBox="0 0 32 32">
    <path fill="#b6b5b5" fill-rule="evenodd" d="M13.003,29.003v-4h-2v2	h-4v-2h-2v-4h2v-2h-4v-6h4v-2h-2v-4h2v-2h4v2h2v-4h6v4h2v-2h4v2h2v4h-2v2h4v6h-4v2h2v4h-2v2h-4v-2h-2v4H13.003z M20.003,20.003	v-7.999h-8.001v7.999H20.003z" clip-rule="evenodd"></path>
    <path fill="#706d67" fill-rule="evenodd" d="M13.003,23.003v-2h-2v-2	h-2v-6h2v-2h2v-2h6v2h2v2h2v6h-2v2h-2v2H13.003z M19.003,19.003v-5.999h-6.001v5.999H19.003z" clip-rule="evenodd"></path>
</svg>