<svg xmlns="http://www.w3.org/2000/svg" x="0px" y="0px" width="128" height="128" viewBox="0 0 32 32">
    <polygon fill="#589bd4" points="28,10 28,22 26,22 26,24 24,24 24,26 22,26 22,28 10,28 10,26 8,26 8,24 6,24 6,22 4,22 4,10 6,10 6,8 8,8 8,6 10,6 10,4 22,4 22,6 24,6 24,8 26,8 26,10"></polygon>
    <polygon fill="#e6e5e5" points="21,9 21,23 19,23 19,21 15,21 15,19 13,19 13,21 11,21 11,17 8,17 8,15 11,15 11,13 13,13 13,11 17,11 17,9"></polygon>
    <polygon fill="#b6b5b5" points="13,15 13,17 11,17 11,21 13,21 13,19 15,19 15,15"></polygon>
    <rect width="2" height="2" x="15" y="13" fill="#b6b5b5"></rect>
</svg>